<mxfile host="app.diagrams.net" modified="2022-06-08T07:12:16.877Z" agent="5.0 (Windows NT 10.0; Win64; x64) AppleWebKit/537.36 (KHTML, like Gecko) Chrome/102.0.5005.63 Safari/537.36 Edg/102.0.1245.33" etag="tgrWIye3m6DUS-rvFVh1" version="19.0.1" type="github">
  <diagram id="C5RBs43oDa-KdzZeNtuy" name="Page-1">
    <mxGraphModel dx="462" dy="913" grid="1" gridSize="10" guides="1" tooltips="1" connect="1" arrows="1" fold="1" page="1" pageScale="1" pageWidth="827" pageHeight="1169" math="0" shadow="0">
      <root>
        <mxCell id="WIyWlLk6GJQsqaUBKTNV-0" />
        <mxCell id="WIyWlLk6GJQsqaUBKTNV-1" parent="WIyWlLk6GJQsqaUBKTNV-0" />
        <mxCell id="Uif93kyi4HqsiEAqUYy--2" style="edgeStyle=orthogonalEdgeStyle;rounded=0;orthogonalLoop=1;jettySize=auto;html=1;exitX=0.5;exitY=1;exitDx=0;exitDy=0;entryX=0.5;entryY=0;entryDx=0;entryDy=0;" edge="1" parent="WIyWlLk6GJQsqaUBKTNV-1" source="Uif93kyi4HqsiEAqUYy--0" target="Uif93kyi4HqsiEAqUYy--1">
          <mxGeometry relative="1" as="geometry" />
        </mxCell>
        <mxCell id="Uif93kyi4HqsiEAqUYy--0" value="START" style="ellipse;whiteSpace=wrap;html=1;" vertex="1" parent="WIyWlLk6GJQsqaUBKTNV-1">
          <mxGeometry x="70" y="30" width="120" height="80" as="geometry" />
        </mxCell>
        <mxCell id="Uif93kyi4HqsiEAqUYy--3" style="edgeStyle=orthogonalEdgeStyle;rounded=0;orthogonalLoop=1;jettySize=auto;html=1;exitX=0.5;exitY=1;exitDx=0;exitDy=0;entryX=0.5;entryY=0;entryDx=0;entryDy=0;" edge="1" parent="WIyWlLk6GJQsqaUBKTNV-1" source="Uif93kyi4HqsiEAqUYy--1" target="Uif93kyi4HqsiEAqUYy--4">
          <mxGeometry relative="1" as="geometry">
            <mxPoint x="130" y="230" as="targetPoint" />
          </mxGeometry>
        </mxCell>
        <mxCell id="Uif93kyi4HqsiEAqUYy--1" value="Stack&lt;br&gt;Queue&lt;br&gt;input" style="shape=parallelogram;perimeter=parallelogramPerimeter;whiteSpace=wrap;html=1;fixedSize=1;" vertex="1" parent="WIyWlLk6GJQsqaUBKTNV-1">
          <mxGeometry x="70" y="140" width="120" height="60" as="geometry" />
        </mxCell>
        <mxCell id="Uif93kyi4HqsiEAqUYy--8" style="edgeStyle=orthogonalEdgeStyle;rounded=0;orthogonalLoop=1;jettySize=auto;html=1;exitX=0.5;exitY=1;exitDx=0;exitDy=0;entryX=0.5;entryY=0;entryDx=0;entryDy=0;" edge="1" parent="WIyWlLk6GJQsqaUBKTNV-1" source="Uif93kyi4HqsiEAqUYy--4" target="Uif93kyi4HqsiEAqUYy--5">
          <mxGeometry relative="1" as="geometry" />
        </mxCell>
        <mxCell id="Uif93kyi4HqsiEAqUYy--4" value="while(처리할 문자가 남아 있으면)" style="shape=loopLimit;whiteSpace=wrap;html=1;" vertex="1" parent="WIyWlLk6GJQsqaUBKTNV-1">
          <mxGeometry x="50" y="220" width="160" height="60" as="geometry" />
        </mxCell>
        <mxCell id="Uif93kyi4HqsiEAqUYy--6" value="T" style="edgeStyle=orthogonalEdgeStyle;rounded=0;orthogonalLoop=1;jettySize=auto;html=1;exitX=1;exitY=0.5;exitDx=0;exitDy=0;entryX=0;entryY=0.5;entryDx=0;entryDy=0;" edge="1" parent="WIyWlLk6GJQsqaUBKTNV-1" source="Uif93kyi4HqsiEAqUYy--5" target="Uif93kyi4HqsiEAqUYy--7">
          <mxGeometry relative="1" as="geometry">
            <mxPoint x="220" y="340" as="targetPoint" />
          </mxGeometry>
        </mxCell>
        <mxCell id="Uif93kyi4HqsiEAqUYy--10" value="F" style="edgeStyle=orthogonalEdgeStyle;rounded=0;orthogonalLoop=1;jettySize=auto;html=1;" edge="1" parent="WIyWlLk6GJQsqaUBKTNV-1" source="Uif93kyi4HqsiEAqUYy--5" target="Uif93kyi4HqsiEAqUYy--9">
          <mxGeometry relative="1" as="geometry" />
        </mxCell>
        <mxCell id="Uif93kyi4HqsiEAqUYy--5" value="input== 피연산자?" style="rhombus;whiteSpace=wrap;html=1;" vertex="1" parent="WIyWlLk6GJQsqaUBKTNV-1">
          <mxGeometry x="90" y="300" width="80" height="80" as="geometry" />
        </mxCell>
        <mxCell id="Uif93kyi4HqsiEAqUYy--7" value="push input to queue" style="rounded=0;whiteSpace=wrap;html=1;" vertex="1" parent="WIyWlLk6GJQsqaUBKTNV-1">
          <mxGeometry x="210" y="310" width="120" height="60" as="geometry" />
        </mxCell>
        <mxCell id="Uif93kyi4HqsiEAqUYy--15" value="T" style="edgeStyle=orthogonalEdgeStyle;rounded=0;orthogonalLoop=1;jettySize=auto;html=1;" edge="1" parent="WIyWlLk6GJQsqaUBKTNV-1" source="Uif93kyi4HqsiEAqUYy--9" target="Uif93kyi4HqsiEAqUYy--14">
          <mxGeometry relative="1" as="geometry" />
        </mxCell>
        <mxCell id="Uif93kyi4HqsiEAqUYy--40" value="" style="edgeStyle=orthogonalEdgeStyle;rounded=0;orthogonalLoop=1;jettySize=auto;html=1;entryX=0.5;entryY=0;entryDx=0;entryDy=0;" edge="1" parent="WIyWlLk6GJQsqaUBKTNV-1" source="Uif93kyi4HqsiEAqUYy--9" target="Uif93kyi4HqsiEAqUYy--41">
          <mxGeometry relative="1" as="geometry">
            <mxPoint x="130" y="990" as="targetPoint" />
          </mxGeometry>
        </mxCell>
        <mxCell id="Uif93kyi4HqsiEAqUYy--9" value="input== 연산자?" style="rhombus;whiteSpace=wrap;html=1;" vertex="1" parent="WIyWlLk6GJQsqaUBKTNV-1">
          <mxGeometry x="90" y="420" width="80" height="80" as="geometry" />
        </mxCell>
        <mxCell id="Uif93kyi4HqsiEAqUYy--18" value="T" style="edgeStyle=orthogonalEdgeStyle;rounded=0;orthogonalLoop=1;jettySize=auto;html=1;" edge="1" parent="WIyWlLk6GJQsqaUBKTNV-1" source="Uif93kyi4HqsiEAqUYy--14" target="Uif93kyi4HqsiEAqUYy--17">
          <mxGeometry relative="1" as="geometry" />
        </mxCell>
        <mxCell id="Uif93kyi4HqsiEAqUYy--23" value="" style="edgeStyle=orthogonalEdgeStyle;rounded=0;orthogonalLoop=1;jettySize=auto;html=1;" edge="1" parent="WIyWlLk6GJQsqaUBKTNV-1" source="Uif93kyi4HqsiEAqUYy--14" target="Uif93kyi4HqsiEAqUYy--22">
          <mxGeometry relative="1" as="geometry" />
        </mxCell>
        <mxCell id="Uif93kyi4HqsiEAqUYy--14" value="input== ( ?" style="rhombus;whiteSpace=wrap;html=1;" vertex="1" parent="WIyWlLk6GJQsqaUBKTNV-1">
          <mxGeometry x="250" y="420" width="80" height="80" as="geometry" />
        </mxCell>
        <mxCell id="Uif93kyi4HqsiEAqUYy--17" value="push input to stack" style="whiteSpace=wrap;html=1;" vertex="1" parent="WIyWlLk6GJQsqaUBKTNV-1">
          <mxGeometry x="390" y="430" width="120" height="60" as="geometry" />
        </mxCell>
        <mxCell id="Uif93kyi4HqsiEAqUYy--33" value="" style="edgeStyle=orthogonalEdgeStyle;rounded=0;orthogonalLoop=1;jettySize=auto;html=1;" edge="1" parent="WIyWlLk6GJQsqaUBKTNV-1" source="Uif93kyi4HqsiEAqUYy--22" target="Uif93kyi4HqsiEAqUYy--32">
          <mxGeometry relative="1" as="geometry" />
        </mxCell>
        <mxCell id="Uif93kyi4HqsiEAqUYy--22" value="input == ) ?" style="rhombus;whiteSpace=wrap;html=1;" vertex="1" parent="WIyWlLk6GJQsqaUBKTNV-1">
          <mxGeometry x="250" y="530" width="80" height="80" as="geometry" />
        </mxCell>
        <mxCell id="Uif93kyi4HqsiEAqUYy--30" value="" style="edgeStyle=orthogonalEdgeStyle;rounded=0;orthogonalLoop=1;jettySize=auto;html=1;" edge="1" parent="WIyWlLk6GJQsqaUBKTNV-1" source="Uif93kyi4HqsiEAqUYy--26" target="Uif93kyi4HqsiEAqUYy--29">
          <mxGeometry relative="1" as="geometry" />
        </mxCell>
        <mxCell id="Uif93kyi4HqsiEAqUYy--26" value="while != 왼쪽 괄호" style="shape=loopLimit;whiteSpace=wrap;html=1;" vertex="1" parent="WIyWlLk6GJQsqaUBKTNV-1">
          <mxGeometry x="225" y="820" width="130" height="40" as="geometry" />
        </mxCell>
        <mxCell id="Uif93kyi4HqsiEAqUYy--42" style="edgeStyle=orthogonalEdgeStyle;rounded=0;orthogonalLoop=1;jettySize=auto;html=1;exitX=0.5;exitY=1;exitDx=0;exitDy=0;entryX=0.5;entryY=0;entryDx=0;entryDy=0;" edge="1" parent="WIyWlLk6GJQsqaUBKTNV-1" source="Uif93kyi4HqsiEAqUYy--29" target="Uif93kyi4HqsiEAqUYy--41">
          <mxGeometry relative="1" as="geometry" />
        </mxCell>
        <mxCell id="Uif93kyi4HqsiEAqUYy--29" value="pop" style="whiteSpace=wrap;html=1;" vertex="1" parent="WIyWlLk6GJQsqaUBKTNV-1">
          <mxGeometry x="230" y="890" width="120" height="60" as="geometry" />
        </mxCell>
        <mxCell id="Uif93kyi4HqsiEAqUYy--36" value="" style="edgeStyle=orthogonalEdgeStyle;rounded=0;orthogonalLoop=1;jettySize=auto;html=1;" edge="1" parent="WIyWlLk6GJQsqaUBKTNV-1" source="Uif93kyi4HqsiEAqUYy--32" target="Uif93kyi4HqsiEAqUYy--35">
          <mxGeometry relative="1" as="geometry" />
        </mxCell>
        <mxCell id="Uif93kyi4HqsiEAqUYy--32" value="pop" style="whiteSpace=wrap;html=1;" vertex="1" parent="WIyWlLk6GJQsqaUBKTNV-1">
          <mxGeometry x="230" y="640" width="120" height="60" as="geometry" />
        </mxCell>
        <mxCell id="Uif93kyi4HqsiEAqUYy--37" style="edgeStyle=orthogonalEdgeStyle;rounded=0;orthogonalLoop=1;jettySize=auto;html=1;exitX=0.5;exitY=1;exitDx=0;exitDy=0;entryX=0.5;entryY=0;entryDx=0;entryDy=0;" edge="1" parent="WIyWlLk6GJQsqaUBKTNV-1" source="Uif93kyi4HqsiEAqUYy--35" target="Uif93kyi4HqsiEAqUYy--26">
          <mxGeometry relative="1" as="geometry" />
        </mxCell>
        <mxCell id="Uif93kyi4HqsiEAqUYy--35" value="push" style="whiteSpace=wrap;html=1;" vertex="1" parent="WIyWlLk6GJQsqaUBKTNV-1">
          <mxGeometry x="230" y="730" width="120" height="60" as="geometry" />
        </mxCell>
        <mxCell id="Uif93kyi4HqsiEAqUYy--44" value="" style="edgeStyle=orthogonalEdgeStyle;rounded=0;orthogonalLoop=1;jettySize=auto;html=1;" edge="1" parent="WIyWlLk6GJQsqaUBKTNV-1" source="Uif93kyi4HqsiEAqUYy--41" target="Uif93kyi4HqsiEAqUYy--43">
          <mxGeometry relative="1" as="geometry" />
        </mxCell>
        <mxCell id="Uif93kyi4HqsiEAqUYy--41" value="while not is empty" style="shape=loopLimit;whiteSpace=wrap;html=1;" vertex="1" parent="WIyWlLk6GJQsqaUBKTNV-1">
          <mxGeometry x="80" y="1020" width="100" height="80" as="geometry" />
        </mxCell>
        <mxCell id="Uif93kyi4HqsiEAqUYy--47" value="" style="edgeStyle=orthogonalEdgeStyle;rounded=0;orthogonalLoop=1;jettySize=auto;html=1;" edge="1" parent="WIyWlLk6GJQsqaUBKTNV-1" source="Uif93kyi4HqsiEAqUYy--43" target="Uif93kyi4HqsiEAqUYy--46">
          <mxGeometry relative="1" as="geometry" />
        </mxCell>
        <mxCell id="Uif93kyi4HqsiEAqUYy--43" value="pop" style="whiteSpace=wrap;html=1;" vertex="1" parent="WIyWlLk6GJQsqaUBKTNV-1">
          <mxGeometry x="235" y="1030" width="120" height="60" as="geometry" />
        </mxCell>
        <mxCell id="Uif93kyi4HqsiEAqUYy--46" value="print" style="whiteSpace=wrap;html=1;" vertex="1" parent="WIyWlLk6GJQsqaUBKTNV-1">
          <mxGeometry x="435" y="1030" width="120" height="60" as="geometry" />
        </mxCell>
      </root>
    </mxGraphModel>
  </diagram>
</mxfile>
